<svg width="284" height="271" viewBox="0 0 284 271" fill="none" xmlns="http://www.w3.org/2000/svg">
<path d="M148.85 5.59604L183.866 84.1511C185.101 86.9223 187.72 88.825 190.738 89.1435L276.268 98.1708C282.724 98.8521 285.324 106.855 280.502 111.201L216.612 168.778C214.358 170.809 213.358 173.887 213.988 176.856L231.833 260.99C233.18 267.34 226.372 272.286 220.749 269.043L146.247 226.072C143.619 224.556 140.381 224.556 137.753 226.072L63.2512 269.043C57.6285 272.286 50.8205 267.339 52.1673 260.99L70.0123 176.856C70.6418 173.887 69.6415 170.809 67.3876 168.778L3.49787 111.201C-1.32398 106.855 1.27645 98.8521 7.73158 98.1708L93.2624 89.1435C96.2797 88.825 98.8985 86.9223 100.134 84.1511L135.15 5.59602C137.792 -0.332635 146.208 -0.332622 148.85 5.59604Z" fill="url(#paint0_linear_858_2215)" stroke="#00B0A4"/>
<defs>
<linearGradient id="paint0_linear_858_2215" x1="142" y1="-11" x2="142" y2="309" gradientUnits="userSpaceOnUse">
<stop stop-color="#4ECDC4" stop-opacity="0.3"/>
<stop offset="1" stop-color="#4ECDC4"/>
</linearGradient>
</defs>
</svg>
