<svg width="300" height="125" viewBox="0 0 300 125" fill="none" xmlns="http://www.w3.org/2000/svg">
<mask id="path-1-inside-1_858_2023" fill="white">
<path fill-rule="evenodd" clip-rule="evenodd" d="M63.0769 124.611C62.8209 124.614 62.5645 124.615 62.3077 124.615C27.8961 124.615 0 96.7193 0 62.3077C0 27.8961 27.8961 0 62.3077 0C62.5645 0 62.8209 0.00155325 63.0769 0.00465087V0H237.692H241.538V0.11677C274.159 2.10328 300 29.1877 300 62.3077C300 95.4277 274.159 122.512 241.538 124.499V124.615H237.692H63.0769V124.611Z"/>
</mask>
<path fill-rule="evenodd" clip-rule="evenodd" d="M63.0769 124.611C62.8209 124.614 62.5645 124.615 62.3077 124.615C27.8961 124.615 0 96.7193 0 62.3077C0 27.8961 27.8961 0 62.3077 0C62.5645 0 62.8209 0.00155325 63.0769 0.00465087V0H237.692H241.538V0.11677C274.159 2.10328 300 29.1877 300 62.3077C300 95.4277 274.159 122.512 241.538 124.499V124.615H237.692H63.0769V124.611Z" fill="url(#paint0_linear_858_2023)"/>
<path d="M63.0769 124.611H65.0769V122.586L63.0527 122.611L63.0769 124.611ZM63.0769 0.00465087L63.0527 2.0045L65.0769 2.02899V0.00465087H63.0769ZM63.0769 0V-2H61.0769V0H63.0769ZM241.538 0H243.538V-2H241.538V0ZM241.538 0.11677H239.538V1.99868L241.417 2.11307L241.538 0.11677ZM241.538 124.499L241.417 122.502L239.538 122.617V124.499H241.538ZM241.538 124.615V126.615H243.538V124.615H241.538ZM63.0769 124.615H61.0769V126.615H63.0769V124.615ZM62.3077 126.615C62.5726 126.615 62.837 126.614 63.1011 126.611L63.0527 122.611C62.8047 122.614 62.5564 122.615 62.3077 122.615V126.615ZM-2 62.3077C-2 97.8239 26.7915 126.615 62.3077 126.615V122.615C29.0007 122.615 2 95.6147 2 62.3077H-2ZM62.3077 -2C26.7915 -2 -2 26.7915 -2 62.3077H2C2 29.0007 29.0007 2 62.3077 2V-2ZM63.1011 -1.9952C62.837 -1.9984 62.5725 -2 62.3077 -2V2C62.5564 2 62.8048 2.0015 63.0527 2.0045L63.1011 -1.9952ZM65.0769 0.00465087V0H61.0769V0.00465087H65.0769ZM63.0769 2H237.692V-2H63.0769V2ZM237.692 2H241.538V-2H237.692V2ZM239.538 0V0.11677H243.538V0H239.538ZM302 62.3077C302 28.1239 275.329 0.17086 241.66 -1.87953L241.417 2.11307C272.988 4.03571 298 30.2516 298 62.3077H302ZM241.66 126.495C275.329 124.445 302 96.4915 302 62.3077H298C298 94.3638 272.988 120.58 241.417 122.502L241.66 126.495ZM239.538 124.499V124.615H243.538V124.499H239.538ZM241.538 122.615H237.692V126.615H241.538V122.615ZM237.692 122.615H63.0769V126.615H237.692V122.615ZM65.0769 124.615V124.611H61.0769V124.615H65.0769Z" fill="#00B0A4" mask="url(#path-1-inside-1_858_2023)"/>
<defs>
<linearGradient id="paint0_linear_858_2023" x1="150" y1="0" x2="150" y2="124.615" gradientUnits="userSpaceOnUse">
<stop stop-color="#4ECDC4" stop-opacity="0.3"/>
<stop offset="1" stop-color="#4ECDC4"/>
</linearGradient>
</defs>
</svg>
