<svg width="360" height="346" viewBox="0 0 360 346" fill="none" xmlns="http://www.w3.org/2000/svg">
<path d="M98.099 172.056L133.614 195.971L167.332 222.357C171.981 225.995 173.96 232.087 172.338 237.763L160.568 278.929L145.893 319.151C143.87 324.696 138.687 328.462 132.789 328.672L90 330.2L47.2114 328.672C41.3126 328.462 36.1301 324.696 34.107 319.151L19.4319 278.929L7.66224 237.763C6.03967 232.087 8.01919 225.995 12.6677 222.357L46.3865 195.971L81.901 172.056C86.7971 168.76 93.2029 168.76 98.099 172.056Z" fill="url(#paint0_linear_858_2216)" stroke="#00B0A4"/>
<path d="M276.896 170.297L309.35 187.844L340.773 207.176C344.939 209.74 347.532 214.231 347.669 219.121L348.7 256L347.669 292.879C347.532 297.769 344.939 302.26 340.773 304.824L309.35 324.156L276.896 341.703C272.593 344.03 267.407 344.03 263.104 341.703L230.65 324.156L199.227 304.824C195.061 302.26 192.468 297.769 192.331 292.879L191.3 256L192.331 219.121C192.468 214.231 195.061 209.74 199.227 207.176L230.65 187.844L263.104 170.297C267.407 167.97 272.593 167.97 276.896 170.297Z" fill="url(#paint1_linear_858_2216)" stroke="#00B0A4"/>
<path d="M211.49 13.9628L211.49 13.9628L211.5 13.9666L237.523 24.4381C241.185 25.9117 244.088 28.8148 245.562 32.4771L256.033 58.5005L256.037 58.5098L267.034 84.3156C268.582 87.9472 268.582 92.0528 267.034 95.6844L256.037 121.49L256.033 121.5L245.562 147.523C244.088 151.185 241.185 154.088 237.523 155.562L211.5 166.033L211.49 166.037L185.684 177.034C182.053 178.582 177.947 178.582 174.316 177.034L148.51 166.037L148.5 166.033L122.477 155.562C118.815 154.088 115.912 151.185 114.438 147.523L103.967 121.5L103.967 121.5L103.963 121.49L92.9659 95.6844C91.4183 92.0528 91.4183 87.9472 92.9659 84.3156L103.963 58.5098L103.963 58.5099L103.967 58.5005L114.438 32.4771C115.912 28.8148 118.815 25.9117 122.477 24.4381L148.5 13.9666L148.5 13.9667L148.51 13.9628L174.316 2.96587C177.947 1.41829 182.053 1.41829 185.684 2.96587L211.49 13.9628Z" fill="url(#paint2_linear_858_2216)" stroke="#00B0A4"/>
<defs>
<linearGradient id="paint0_linear_858_2216" x1="90" y1="166" x2="90" y2="346" gradientUnits="userSpaceOnUse">
<stop stop-color="#4ECDC4" stop-opacity="0.3"/>
<stop offset="1" stop-color="#4ECDC4"/>
</linearGradient>
<linearGradient id="paint1_linear_858_2216" x1="270" y1="166" x2="270" y2="346" gradientUnits="userSpaceOnUse">
<stop stop-color="#4ECDC4" stop-opacity="0.3"/>
<stop offset="1" stop-color="#4ECDC4"/>
</linearGradient>
<linearGradient id="paint2_linear_858_2216" x1="180" y1="0" x2="180" y2="180" gradientUnits="userSpaceOnUse">
<stop stop-color="#4ECDC4" stop-opacity="0.3"/>
<stop offset="1" stop-color="#4ECDC4"/>
</linearGradient>
</defs>
</svg>
