<svg width="302" height="155" viewBox="0 0 302 155" fill="none" xmlns="http://www.w3.org/2000/svg">
<path fill-rule="evenodd" clip-rule="evenodd" d="M1.70968 85.1511C1.66314 85.0352 1.61922 84.9057 1.57812 84.7618C0.531093 81.0972 1.14186 73.2009 1.57812 69.7109L1.71105 69.9601C2.8409 56.9357 11.4926 37.1784 40.553 25.2124C85.0514 6.8895 107.954 1 156.379 1C195.119 1 241.013 17.1416 259.118 25.2124C273.515 31.6301 300.999 47.1999 300.999 77.5635H301C301 107.927 273.516 123.497 259.119 129.915C241.014 137.985 195.12 154.127 156.38 154.127C107.955 154.127 85.0517 148.238 40.5531 129.915C11.4809 117.944 2.83391 98.1754 1.70968 85.1511Z" fill="url(#paint0_linear_858_2036)"/>
<path d="M1.70968 85.1511L2.20783 85.1081L2.20143 85.0339L2.17368 84.9648L1.70968 85.1511ZM1.57812 84.7618L2.05888 84.6245L2.05888 84.6244L1.57812 84.7618ZM1.57812 69.7109L2.0193 69.4756L1.2775 68.0846L1.08198 69.6488L1.57812 69.7109ZM1.71105 69.9601L1.26987 70.1954L2.06343 71.6835L2.20918 70.0033L1.71105 69.9601ZM40.553 25.2124L40.3626 24.7501L40.553 25.2124ZM259.118 25.2124L258.915 25.6691L258.915 25.6691L259.118 25.2124ZM300.999 77.5635H300.499V78.0635H300.999V77.5635ZM301 77.5635H301.5V77.0635H301V77.5635ZM259.119 129.915L258.915 129.458L258.915 129.458L259.119 129.915ZM40.5531 129.915L40.7434 129.452L40.7434 129.452L40.5531 129.915ZM2.17368 84.9648C2.1345 84.8672 2.09598 84.7543 2.05888 84.6245L1.09735 84.8992C1.14246 85.057 1.19178 85.2032 1.24569 85.3374L2.17368 84.9648ZM2.05888 84.6244C1.55857 82.8734 1.44537 80.0523 1.52171 77.1842C1.59756 74.3345 1.85783 71.5043 2.07425 69.7729L1.08198 69.6488C0.862145 71.4075 0.598904 74.2705 0.522062 77.1576C0.445709 80.0263 0.55064 82.9857 1.09735 84.8992L2.05888 84.6244ZM1.13693 69.9461L1.26987 70.1954L2.15224 69.7249L2.0193 69.4756L1.13693 69.9461ZM2.20918 70.0033C3.32278 57.1662 11.855 37.5699 40.7433 25.6747L40.3626 24.7501C11.1303 36.7869 2.35902 56.7052 1.21292 69.9169L2.20918 70.0033ZM40.7433 25.6747C62.9845 16.5166 79.8023 10.477 97.0997 6.72374C114.394 2.97116 132.188 1.5 156.379 1.5V0.5C132.146 0.5 114.276 1.97359 96.8876 5.74648C79.5027 9.51872 62.6199 15.5853 40.3626 24.7501L40.7433 25.6747ZM156.379 1.5C195.016 1.5 240.835 17.6095 258.915 25.6691L259.322 24.7557C241.192 16.6737 195.222 0.5 156.379 0.5V1.5ZM258.915 25.6691C266.09 28.8676 276.498 34.3355 285.108 42.7655C293.71 51.1884 300.499 62.5501 300.499 77.5635H301.499C301.499 62.2133 294.546 50.6084 285.807 42.051C277.075 33.5008 266.543 27.9749 259.322 24.7557L258.915 25.6691ZM300.999 78.0635H301V77.0635H300.999V78.0635ZM300.5 77.5635C300.5 92.5769 293.71 103.939 285.108 112.362C276.499 120.792 266.09 126.259 258.915 129.458L259.323 130.371C266.544 127.152 277.076 121.626 285.808 113.076C294.547 104.519 301.5 92.9138 301.5 77.5635H300.5ZM258.915 129.458C240.836 137.518 195.017 153.627 156.38 153.627V154.627C195.223 154.627 241.193 138.453 259.323 130.371L258.915 129.458ZM156.38 153.627C132.188 153.627 114.394 152.156 97.1 148.403C79.8026 144.65 62.9847 138.61 40.7434 129.452L40.3627 130.377C62.6201 139.542 79.5029 145.608 96.8879 149.381C114.276 153.153 132.146 154.627 156.38 154.627V153.627ZM40.7434 129.452C11.8433 117.552 3.31588 97.945 2.20783 85.1081L1.21154 85.1941C2.35193 98.4057 11.1185 118.335 40.3627 130.377L40.7434 129.452Z" fill="#00B0A4"/>
<defs>
<linearGradient id="paint0_linear_858_2036" x1="151" y1="1" x2="151" y2="154.127" gradientUnits="userSpaceOnUse">
<stop stop-color="#4ECDC4" stop-opacity="0.3"/>
<stop offset="1" stop-color="#4ECDC4"/>
</linearGradient>
</defs>
</svg>
